<?xml version="1.0" encoding="UTF-8"?><svg id="Ebene_2" xmlns="http://www.w3.org/2000/svg" viewBox="0 0 679.53 137"><defs><style>.cls-1{fill:#e3256b;}</style></defs><g id="Ebene_1-2"><path class="cls-1" d="m88.68,0h-40.36C21.63,0,0,21.63,0,48.32v40.36c0,26.69,21.63,48.32,48.32,48.32h40.36c26.69,0,48.32-21.63,48.32-48.32v-40.36C137,21.63,115.37,0,88.68,0Zm0,126.46h-40.36c-20.87,0-37.78-16.91-37.78-37.78v-12.42c0-5.11,5.69-8.14,9.94-5.31,5.47,3.63,10.94,5.46,16.41,5.46,25.82,0,37.42-40.44,63.23-40.44,2.2,0,4.39.29,6.59.88,11.8,3.15,19.76,14.19,19.76,26.4v25.43c0,20.87-16.91,37.78-37.78,37.78Z"/><path class="cls-1" d="m209.99,37.43c-2.38,0-4.64.49-6.78,1.46-2.15.97-3.88,2.5-5.22,4.58-1.33,2.09-2,4.81-2,8.17v3.74h-5.69v9h5.69v33.81h14.12v-33.81h6.82v-9h-6.82v-3.48c0-.78.14-1.44.43-1.98.29-.54.7-.93,1.22-1.19s1.13-.39,1.83-.39,1.38.07,2.06.22c.68.15,1.31.29,1.89.43l2.74-10.56c-1.65-.23-3.38-.46-5.17-.67-1.8-.22-3.51-.33-5.13-.33Z"/><rect class="cls-1" x="227.63" y="38.21" width="13.91" height="59.97"/><path class="cls-1" d="m284.43,56.4c-3.28-1.61-6.85-2.41-10.73-2.41s-7.61.8-10.93,2.41c-3.32,1.61-5.97,4.09-7.95,7.45-1.98,3.36-2.98,7.71-2.98,13.04s.99,9.41,2.98,12.75c1.98,3.35,4.63,5.84,7.95,7.48,3.32,1.64,6.96,2.45,10.93,2.45s7.46-.82,10.73-2.45c3.27-1.64,5.9-4.13,7.89-7.48s2.98-7.6,2.98-12.75-.99-9.68-2.98-13.04c-1.98-3.36-4.61-5.84-7.89-7.45Zm-4.22,26.64c-.84,1.55-1.89,2.67-3.15,3.37s-2.56,1.04-3.89,1.04c-2,0-3.75-.8-5.24-2.39-1.49-1.59-2.24-4.32-2.24-8.17,0-2.66.43-4.79,1.28-6.37.85-1.58,1.94-2.72,3.26-3.41,1.32-.7,2.64-1.04,3.98-1.04,2,0,3.71.81,5.13,2.43,1.42,1.62,2.13,4.42,2.13,8.39,0,2.55-.42,4.6-1.26,6.15Z"/><polygon class="cls-1" points="347.44 82.09 341.22 57.94 328.1 57.94 321.92 82.17 314.98 55.38 300.42 55.38 314.72 98.18 328.62 98.18 334.36 76.89 340.36 98.18 354.09 98.18 368.26 55.38 354.35 55.38 347.44 82.09"/><path class="cls-1" d="m401.35,88.47c-.91.19-1.78.28-2.59.28-2.58,0-3.87-1.3-3.87-3.91v-20.47h9.73v-9h-9.73v-10.82h-13.99v10.82h-5.09v9h5.09v20.99c0,3.3.72,6,2.15,8.11,1.43,2.1,3.33,3.64,5.69,4.63,2.36.98,4.9,1.48,7.63,1.48,1.83,0,3.54-.23,5.15-.7,1.61-.46,3.3-1.01,5.06-1.65l-2.04-9.69c-1.22.43-2.28.75-3.19.93Z"/><path class="cls-1" d="m442.74,54.66c-.46-.04-.93-.06-1.39-.06-2.35,0-4.65.9-6.91,2.69-1.91,1.52-3.52,3.76-4.87,6.66v-8.83h-13.91v43.07h13.91v-18.25c0-2.75.43-4.95,1.28-6.6.85-1.65,2.06-2.85,3.61-3.61s3.34-1.13,5.37-1.13c.67,0,1.38.02,2.13.06.75.04,1.49.11,2.22.2l-.13-13.99c-.41-.09-.84-.15-1.3-.2Z"/><path class="cls-1" d="m484.3,55.9c-3-1.27-6.57-1.91-10.71-1.91-4.75,0-8.72.54-11.91,1.61-3.19,1.07-5.58,2.7-7.17,4.89-1.59,2.19-2.39,4.96-2.39,8.32h15.04c0-.87.22-1.67.67-2.41.45-.74,1.14-1.33,2.09-1.78.94-.45,2.17-.67,3.67-.67,2.55,0,4.22.6,5,1.78.78,1.19,1.17,2.85,1.17,5v3.17c-1.51-.27-3.01-.54-4.45-.74-1.87-.26-4.02-.39-6.45-.39-4,0-7.37.51-10.1,1.52-2.74,1.02-4.8,2.44-6.19,4.28-1.39,1.84-2.09,4.02-2.09,6.54,0,2.67.66,5.1,2,7.3,1.33,2.2,3.31,3.95,5.93,5.24,2.62,1.29,5.84,1.93,9.67,1.93,3.48,0,6.32-.82,8.52-2.45,1.69-1.26,3.04-2.86,4.04-4.77l.91,5.84h12.12v-26.94c0-3.85-.81-7.05-2.43-9.6-1.62-2.55-3.93-4.46-6.93-5.74Zm-7.63,32.03c-1.13.78-2.68,1.17-4.65,1.17-2.32,0-4.01-.4-5.09-1.19-1.07-.8-1.61-1.73-1.61-2.8,0-1.48.6-2.54,1.8-3.19,1.2-.65,2.83-.98,4.89-.98,1.48,0,2.99.09,4.54.26,1.08.12,2.14.29,3.17.49-.03,1.09-.24,2.18-.67,3.3-.46,1.19-1.26,2.17-2.39,2.96Z"/><path class="cls-1" d="m520.5,67.52c1.09-.62,2.24-.94,3.45-.94,1.54,0,2.7.51,3.5,1.54.8,1.03,1.3,2.17,1.5,3.41l13.91.13c0-2-.38-4.04-1.15-6.13-.77-2.09-1.93-4-3.5-5.74-1.56-1.74-3.53-3.14-5.89-4.22-2.36-1.07-5.12-1.61-8.28-1.61-3.74,0-7.21.86-10.41,2.58-3.2,1.72-5.78,4.27-7.73,7.65s-2.93,7.57-2.93,12.58c0,4.58.98,8.58,2.93,11.99,1.96,3.42,4.53,6.07,7.73,7.95,3.2,1.88,6.67,2.83,10.41,2.83,4.29,0,7.81-.82,10.58-2.45,2.77-1.64,4.83-3.79,6.19-6.45,1.36-2.66,2.04-5.53,2.04-8.6h-13.91c0,1.39-.34,2.54-1.02,3.45-.68.91-2.01,1.37-3.98,1.37-1.22,0-2.37-.3-3.45-.91-1.09-.61-1.97-1.65-2.65-3.13-.68-1.48-1.02-3.49-1.02-6.04s.34-4.65,1.02-6.13c.68-1.48,1.56-2.53,2.65-3.15Z"/><polygon class="cls-1" points="598.44 55.38 579.88 55.38 566.85 67.88 566.85 38.21 552.94 38.21 552.94 98.18 566.85 98.18 566.85 82.23 570.36 79.25 582.71 98.18 599.57 98.18 580.17 70.91 598.44 55.38"/><path class="cls-1" d="m640.48,70.17c-.51-3.06-1.58-5.8-3.22-8.23-1.64-2.43-3.79-4.37-6.45-5.8-2.63-1.41-5.71-2.13-9.24-2.15-2.17-.01-4.36.3-6.42.98-5.01,1.65-8.86,4.81-11.55,9.47-1.94,3.38-2.91,7.42-2.91,12.15s.98,8.81,2.93,12.26c1.96,3.45,4.51,6.1,7.67,7.95,3.16,1.85,6.53,2.78,10.13,2.78s6.66-.64,9.37-1.91c2.71-1.28,4.91-3,6.6-5.17,1.7-2.17,2.76-4.59,3.19-7.26h-13.82c-.38,1.13-1.04,1.96-2,2.48-.96.52-2.07.78-3.35.78-1.56,0-2.86-.37-3.89-1.11-1.03-.74-1.8-1.77-2.32-3.11-.51-1.31-.77-2.86-.78-4.65h25.72c.72-3.24.83-6.39.33-9.45Zm-25.16-1.04c.59-1.35,1.43-2.38,2.52-3.09,1.09-.71,2.37-1.06,3.85-1.06,1.33,0,2.43.27,3.28.8.85.54,1.51,1.25,1.98,2.13s.77,1.85.94,2.89c.09.6.13,1.19.14,1.78h-13.53c.12-1.31.39-2.46.83-3.45Z"/><path class="cls-1" d="m679.4,54.86c-.41-.09-.84-.15-1.3-.2s-.93-.06-1.39-.06c-2.35,0-4.65.9-6.91,2.69-1.91,1.52-3.52,3.76-4.87,6.66v-8.83h-13.91v43.07h13.91v-18.25c0-2.75.43-4.95,1.28-6.6.85-1.65,2.06-2.85,3.61-3.61s3.34-1.13,5.37-1.13c.67,0,1.38.02,2.13.06.75.04,1.49.11,2.22.2l-.13-13.99Z"/></g></svg>