<?xml version="1.0" encoding="UTF-8"?><svg id="Ebene_2" xmlns="http://www.w3.org/2000/svg" viewBox="0 0 679.53 679.53"><defs><style>.cls-1{fill:#fff;}</style></defs><g id="Ebene_1-2"><path class="cls-1" d="m439.86,0h-200.2C107.3,0,0,107.3,0,239.66v200.2c0,132.36,107.3,239.66,239.66,239.66h200.2c132.36,0,239.66-107.3,239.66-239.66v-200.2C679.53,107.3,572.23,0,439.86,0Zm0,627.26h-200.2c-103.49,0-187.39-83.9-187.39-187.39v-61.62c0-25.33,28.21-40.36,49.31-26.34,27.12,18.03,54.25,27.06,81.37,27.06,128.06,0,185.62-200.58,313.63-200.58,10.89,0,21.78,1.46,32.67,4.37,58.51,15.64,98.01,70.4,98.01,130.96v126.15c0,103.49-83.9,187.39-187.39,187.39Z"/></g></svg>